<svg xmlns="http://www.w3.org/2000/svg" xmlns:xlink="http://www.w3.org/1999/xlink" xml:space="preserve" version="1.1" style="shape-rendering:geometricPrecision;text-rendering:geometricPrecision;image-rendering:optimizeQuality;" viewBox="0 0 734 590" x="0px" y="0px" fill-rule="evenodd" clip-rule="evenodd"><defs><style type="text/css">
   
    .fil0 {fill:black}
   
  </style></defs><g><path class="fil0" d="M3 408c-8,-53 -2,-188 39,-215 -16,-6 -28,-14 -37,-25 0,-6 0,-11 0,-17 21,-15 47,-20 76,-18 5,6 10,12 15,18 15,-35 32,-70 49,-102 12,-15 26,-25 43,-30 114,-25 243,-25 358,0 17,5 31,15 42,30 18,32 34,67 50,102 5,-6 10,-12 15,-18 29,-2 54,3 75,18 1,6 1,11 1,17 -9,11 -22,19 -38,25 42,27 48,162 39,215 2,6 1,43 1,52 0,7 -5,12 -12,12l-109 0c-7,0 -13,-5 -13,-12l0 -37c-155,-14 -306,-14 -461,0l0 37c0,7 -5,12 -12,12l-109 0c-7,0 -13,-5 -13,-12 0,-9 -1,-46 1,-52zm187 -361c-13,3 -21,10 -27,19 -14,29 -28,59 -43,89 162,-34 331,-34 493,0 -14,-30 -28,-60 -43,-89 -5,-9 -13,-16 -26,-19 -115,-24 -239,-24 -354,0zm448 289l-85 0c-6,0 -11,5 -11,12 0,6 5,11 11,11l85 0c7,0 12,-5 12,-11 0,-7 -5,-12 -12,-12zm47 -67c1,6 1,12 0,18 -6,15 -14,26 -25,34 -29,0 -59,0 -88,0 -7,-6 -8,-12 -6,-19 4,-12 13,-21 25,-27 35,-6 76,-15 94,-6zm-590 67l86 0c6,0 11,5 11,12 0,6 -5,11 -11,11l-86 0c-6,0 -11,-5 -11,-11 0,-7 5,-12 11,-12zm-46 -67c-1,6 -2,12 0,18 6,15 14,26 25,34 29,0 58,0 88,0 6,-6 8,-12 6,-19 -5,-12 -13,-21 -26,-27 -35,-6 -76,-15 -93,-6z"/></g><text x="0" y="487" fill="#000000" font-size="5px" font-weight="bold" font-family="'Helvetica Neue', Helvetica, Arial-Unicode, Arial, Sans-serif">Created by QOLBIN SALIIM</text><text x="0" y="492" fill="#000000" font-size="5px" font-weight="bold" font-family="'Helvetica Neue', Helvetica, Arial-Unicode, Arial, Sans-serif">from the Noun Project</text></svg>